<svg width="176" height="51" viewBox="0 0 176 51" fill="none" xmlns="http://www.w3.org/2000/svg">
<path d="M44.9555 34.0212L42.6847 18.0628C42.1014 13.9587 38.5808 10.917 34.4352 10.917H15.5613C11.4157 10.917 7.89505 13.9587 7.31175 18.0628L5.04105 34.0212C4.58274 37.2295 7.06177 40.0837 10.2907 40.0837C11.7073 40.0837 13.0406 39.5212 14.0405 38.5212L18.7486 33.8337H31.2479L35.9351 38.5212C36.9351 39.5212 38.2892 40.0837 39.6849 40.0837C42.9347 40.0837 45.4138 37.2295 44.9555 34.0212ZM22.915 23.417H18.7486V27.5837H16.6654V23.417H12.499V21.3337H16.6654V17.167H18.7486V21.3337H22.915V23.417ZM31.2479 21.3337C30.1021 21.3337 29.1647 20.3962 29.1647 19.2503C29.1647 18.1045 30.1021 17.167 31.2479 17.167C32.3937 17.167 33.3311 18.1045 33.3311 19.2503C33.3311 20.3962 32.3937 21.3337 31.2479 21.3337ZM35.4143 27.5837C34.2686 27.5837 33.3311 26.6462 33.3311 25.5003C33.3311 24.3545 34.2686 23.417 35.4143 23.417C36.5601 23.417 37.4975 24.3545 37.4975 25.5003C37.4975 26.6462 36.5601 27.5837 35.4143 27.5837Z" fill="#2A7AE4"/>
<path d="M128.081 32.5C126.665 33.9167 125.015 34.625 123.132 34.625C121.965 34.625 120.865 34.3917 119.832 33.925C118.815 33.4583 117.924 32.8167 117.157 32C116.407 31.1833 115.807 30.225 115.357 29.125C114.924 28.0083 114.707 26.8083 114.707 25.525C114.707 24.3083 114.924 23.1667 115.357 22.1C115.807 21.0167 116.415 20.075 117.182 19.275C117.965 18.4583 118.882 17.8167 119.932 17.35C120.982 16.8667 122.123 16.625 123.357 16.625C125.023 16.625 126.448 16.975 127.631 17.675C128.831 18.375 129.731 19.3167 130.331 20.5L127.756 22.4C127.306 21.5167 126.673 20.8417 125.856 20.375C125.056 19.9083 124.182 19.675 123.232 19.675C122.482 19.675 121.79 19.8333 121.157 20.15C120.54 20.4667 120.007 20.9 119.557 21.45C119.123 22 118.782 22.6333 118.532 23.35C118.298 24.0667 118.182 24.825 118.182 25.625C118.182 26.4583 118.315 27.2417 118.582 27.975C118.848 28.6917 119.215 29.3167 119.682 29.85C120.148 30.3833 120.698 30.8083 121.332 31.125C121.982 31.425 122.682 31.575 123.432 31.575C125.148 31.575 126.698 30.7667 128.081 29.15V27.9H124.506V25.375H130.931V34.5H128.081V32.5Z" fill="#464646"/>
<path d="M139.621 34.75C138.571 34.75 137.621 34.575 136.771 34.225C135.921 33.8583 135.196 33.3667 134.596 32.75C133.996 32.1333 133.53 31.4167 133.196 30.6C132.88 29.7833 132.721 28.925 132.721 28.025C132.721 27.0917 132.88 26.2167 133.196 25.4C133.513 24.5667 133.971 23.8417 134.571 23.225C135.171 22.5917 135.896 22.0917 136.746 21.725C137.613 21.3583 138.579 21.175 139.646 21.175C140.712 21.175 141.662 21.3583 142.496 21.725C143.346 22.0917 144.062 22.5833 144.646 23.2C145.246 23.8167 145.696 24.5333 145.996 25.35C146.312 26.1667 146.47 27.0167 146.47 27.9C146.47 28.1167 146.462 28.325 146.445 28.525C146.445 28.725 146.429 28.8917 146.395 29.025H136.271C136.321 29.5417 136.446 30 136.646 30.4C136.846 30.8 137.104 31.1417 137.421 31.425C137.738 31.7083 138.096 31.925 138.496 32.075C138.896 32.225 139.313 32.3 139.746 32.3C140.412 32.3 141.037 32.1417 141.621 31.825C142.221 31.4917 142.629 31.0583 142.846 30.525L145.721 31.325C145.237 32.325 144.462 33.15 143.396 33.8C142.346 34.4333 141.087 34.75 139.621 34.75ZM143.021 26.85C142.937 25.8667 142.571 25.0833 141.921 24.5C141.287 23.9 140.512 23.6 139.596 23.6C139.146 23.6 138.721 23.6833 138.321 23.85C137.938 24 137.596 24.2167 137.296 24.5C136.996 24.7833 136.746 25.125 136.546 25.525C136.363 25.925 136.254 26.3667 136.221 26.85H143.021Z" fill="#464646"/>
<path d="M154.586 34.75C153.536 34.75 152.586 34.575 151.736 34.225C150.886 33.8583 150.161 33.3667 149.561 32.75C148.961 32.1333 148.495 31.4167 148.161 30.6C147.845 29.7833 147.686 28.925 147.686 28.025C147.686 27.0917 147.845 26.2167 148.161 25.4C148.478 24.5667 148.936 23.8417 149.536 23.225C150.136 22.5917 150.861 22.0917 151.711 21.725C152.578 21.3583 153.544 21.175 154.611 21.175C155.677 21.175 156.627 21.3583 157.461 21.725C158.311 22.0917 159.027 22.5833 159.611 23.2C160.211 23.8167 160.66 24.5333 160.96 25.35C161.277 26.1667 161.435 27.0167 161.435 27.9C161.435 28.1167 161.427 28.325 161.41 28.525C161.41 28.725 161.394 28.8917 161.36 29.025H151.236C151.286 29.5417 151.411 30 151.611 30.4C151.811 30.8 152.069 31.1417 152.386 31.425C152.703 31.7083 153.061 31.925 153.461 32.075C153.861 32.225 154.278 32.3 154.711 32.3C155.377 32.3 156.002 32.1417 156.586 31.825C157.186 31.4917 157.594 31.0583 157.811 30.525L160.685 31.325C160.202 32.325 159.427 33.15 158.361 33.8C157.311 34.4333 156.052 34.75 154.586 34.75ZM157.986 26.85C157.902 25.8667 157.536 25.0833 156.886 24.5C156.252 23.9 155.477 23.6 154.561 23.6C154.111 23.6 153.686 23.6833 153.286 23.85C152.903 24 152.561 24.2167 152.261 24.5C151.961 24.7833 151.711 25.125 151.511 25.525C151.328 25.925 151.219 26.3667 151.186 26.85H157.986Z" fill="#464646"/>
<path d="M172.426 34.5L168.626 28.825L166.826 30.6V34.5H163.476V16.25H166.826V27.325L172.076 21.425H175.65L170.776 26.975L176 34.5H172.426Z" fill="#464646"/>
<path d="M56.7727 16.75H59.8225L66.5721 34.5H63.0223L61.3724 30.075H55.1728L53.5478 34.5H49.998L56.7727 16.75ZM60.7474 27.65L58.2976 20.675L55.7477 27.65H60.7474Z" fill="#2A7AE4"/>
<path d="M68.1689 16.25H71.5187V30.3C71.5187 30.7833 71.6354 31.1583 71.8687 31.425C72.102 31.6917 72.4353 31.825 72.8686 31.825C73.0686 31.825 73.2853 31.7917 73.5186 31.725C73.7686 31.6583 74.0019 31.575 74.2186 31.475L74.6685 34.025C74.2186 34.2417 73.6936 34.4083 73.0936 34.525C72.4937 34.6417 71.952 34.7 71.4687 34.7C70.4188 34.7 69.6021 34.425 69.0188 33.875C68.4522 33.3083 68.1689 32.5083 68.1689 31.475V16.25Z" fill="#2A7AE4"/>
<path d="M80.1278 34.75C78.7779 34.75 77.7529 34.3167 77.053 33.45C76.353 32.5833 76.003 31.3 76.003 29.6V21.4H79.3528V28.875C79.3528 30.8917 80.0778 31.9 81.5277 31.9C82.1777 31.9 82.8026 31.7083 83.4026 31.325C84.0192 30.925 84.5192 30.325 84.9025 29.525V21.4H88.2523V30.65C88.2523 31 88.3107 31.25 88.4273 31.4C88.5606 31.55 88.769 31.6333 89.0523 31.65V34.5C88.719 34.5667 88.4357 34.6083 88.2023 34.625C87.9857 34.6417 87.7857 34.65 87.6024 34.65C87.0024 34.65 86.5108 34.5167 86.1275 34.25C85.7608 33.9667 85.5442 33.5833 85.4775 33.1L85.4025 32.05C84.8192 32.95 84.0692 33.625 83.1526 34.075C82.236 34.525 81.2277 34.75 80.1278 34.75Z" fill="#2A7AE4"/>
<path d="M99.3808 24.3C98.3642 24.3167 97.4559 24.5167 96.656 24.9C95.856 25.2667 95.281 25.825 94.9311 26.575V34.5H91.5812V21.4H94.6561V24.2C94.8894 23.75 95.1644 23.35 95.481 23C95.7977 22.6333 96.1393 22.3167 96.506 22.05C96.8726 21.7833 97.2393 21.5833 97.6059 21.45C97.9892 21.3 98.3559 21.225 98.7058 21.225C98.8892 21.225 99.0225 21.225 99.1058 21.225C99.2058 21.225 99.2975 21.2333 99.3808 21.25V24.3Z" fill="#2A7AE4"/>
<path d="M104.653 34.75C104.019 34.75 103.428 34.65 102.878 34.45C102.328 34.2333 101.853 33.9417 101.453 33.575C101.053 33.1917 100.736 32.75 100.503 32.25C100.286 31.75 100.178 31.2 100.178 30.6C100.178 29.9833 100.311 29.4167 100.578 28.9C100.861 28.3667 101.244 27.9167 101.728 27.55C102.228 27.1833 102.819 26.9 103.503 26.7C104.186 26.4833 104.936 26.375 105.753 26.375C106.336 26.375 106.902 26.425 107.452 26.525C108.019 26.625 108.519 26.7667 108.952 26.95V26.2C108.952 25.3333 108.702 24.6667 108.202 24.2C107.719 23.7333 106.994 23.5 106.028 23.5C105.328 23.5 104.644 23.625 103.978 23.875C103.311 24.125 102.628 24.4917 101.928 24.975L100.903 22.85C102.586 21.7333 104.403 21.175 106.352 21.175C108.236 21.175 109.694 21.6417 110.727 22.575C111.777 23.4917 112.302 24.825 112.302 26.575V30.65C112.302 31 112.36 31.25 112.477 31.4C112.61 31.55 112.819 31.6333 113.102 31.65V34.5C112.535 34.6167 112.044 34.675 111.627 34.675C110.994 34.675 110.502 34.5333 110.152 34.25C109.819 33.9667 109.611 33.5917 109.527 33.125L109.452 32.4C108.869 33.1667 108.161 33.75 107.327 34.15C106.494 34.55 105.603 34.75 104.653 34.75ZM105.603 32.3C106.169 32.3 106.702 32.2 107.202 32C107.719 31.8 108.119 31.5333 108.402 31.2C108.769 30.9167 108.952 30.6 108.952 30.25V28.75C108.552 28.6 108.119 28.4833 107.652 28.4C107.186 28.3 106.736 28.25 106.302 28.25C105.436 28.25 104.728 28.45 104.178 28.85C103.628 29.2333 103.353 29.725 103.353 30.325C103.353 30.8917 103.569 31.3667 104.003 31.75C104.436 32.1167 104.969 32.3 105.603 32.3Z" fill="#2A7AE4"/>
</svg>
