<svg width="24" height="25" viewBox="0 0 24 25" fill="none" xmlns="http://www.w3.org/2000/svg">
<path d="M15.5006 14.4996H14.7106L14.4306 14.2296C15.6306 12.8296 16.2506 10.9196 15.9106 8.88965C15.4406 6.10965 13.1206 3.88965 10.3206 3.54965C6.09063 3.02965 2.53063 6.58965 3.05063 10.8196C3.39063 13.6196 5.61063 15.9396 8.39063 16.4096C10.4206 16.7496 12.3306 16.1296 13.7306 14.9296L14.0006 15.2096V15.9996L18.2506 20.2496C18.6606 20.6596 19.3306 20.6596 19.7406 20.2496C20.1506 19.8396 20.1506 19.1696 19.7406 18.7596L15.5006 14.4996ZM9.50063 14.4996C7.01063 14.4996 5.00063 12.4896 5.00063 9.99965C5.00063 7.50965 7.01063 5.49965 9.50063 5.49965C11.9906 5.49965 14.0006 7.50965 14.0006 9.99965C14.0006 12.4896 11.9906 14.4996 9.50063 14.4996Z" fill="#A2A2A2"/>
</svg>
